<svg width="64" height="64" viewBox="0 0 64 64" fill="none" xmlns="http://www.w3.org/2000/svg">
<rect x="17.0669" y="19.2" width="29.8667" height="25.6" fill="white"/>
<path d="M31.9999 6.40002C17.8623 6.40002 6.3999 17.8624 6.3999 32C6.3999 46.1376 17.8623 57.6 31.9999 57.6C46.1375 57.6 57.5999 46.1376 57.5999 32C57.5999 17.8624 46.1375 6.40002 31.9999 6.40002ZM42.0415 39.0251C42.8756 39.8592 42.8756 41.2075 42.0415 42.0416C41.6255 42.4576 41.0794 42.6667 40.5332 42.6667C39.9871 42.6667 39.441 42.4576 39.025 42.0416L31.9999 35.0166L24.9748 42.0416C24.5588 42.4576 24.0127 42.6667 23.4666 42.6667C22.9204 42.6667 22.3743 42.4576 21.9583 42.0416C21.1242 41.2075 21.1242 39.8592 21.9583 39.0251L28.9834 32L21.9583 24.975C21.1242 24.1408 21.1242 22.7926 21.9583 21.9584C22.7924 21.1243 24.1407 21.1243 24.9748 21.9584L31.9999 28.9835L39.025 21.9584C39.8591 21.1243 41.2074 21.1243 42.0415 21.9584C42.8756 22.7926 42.8756 24.1408 42.0415 24.975L35.0164 32L42.0415 39.0251Z" fill="url(#paint0_linear)"/>
<defs>
<linearGradient id="paint0_linear" x1="-57.6001" y1="-32.8533" x2="97.9896" y2="34.918" gradientUnits="userSpaceOnUse">
<stop offset="0.281711" stop-color="#FB3A78"/>
<stop offset="0.734073" stop-color="#FC705E"/>
</linearGradient>
</defs>
</svg>
