<svg width="34" height="33" viewBox="0 0 34 33" fill="none" xmlns="http://www.w3.org/2000/svg">
<path d="M25.9673 31.1665C27.6763 32.8131 30.3977 32.7636 32.0457 31.056C33.6936 29.3485 33.6442 26.6294 31.9351 24.9828L23.193 16.5599L31.9352 8.137C33.6442 6.49041 33.6936 3.77132 32.0457 2.06374C30.3977 0.356163 27.6763 0.306723 25.9673 1.95332L17 10.5931L8.03269 1.95332C6.32368 0.306723 3.6023 0.356163 1.95433 2.06374C0.306352 3.77132 0.355831 6.49041 2.06484 8.137L10.807 16.5599L2.06486 24.9828C0.355849 26.6294 0.306369 29.3485 1.95434 31.056C3.60232 32.7636 6.32369 32.8131 8.0327 31.1665L17 22.5267L25.9673 31.1665Z" fill="#DFE3EA"/>
</svg>
