<svg width="42" height="37" viewBox="0 0 42 37" fill="none" xmlns="http://www.w3.org/2000/svg">
<path d="M21.1066 4.51801C18.2113 1.61685 10.8074 -2.58913 3.97044 3.4744C-2.90181 9.56918 3.25458 18.3486 7.1918 21.9764L21.0622 36.035V36.125L21.1066 36.08L21.1511 36.125V36.035L35.0215 21.9764C38.9587 18.3486 45.1151 9.56918 38.2428 3.4744C31.4058 -2.58913 24.002 1.61685 21.1066 4.51801Z" fill="#50ECCF"/>
<path d="M21.1066 4.51801C18.2113 1.61685 10.8074 -2.58913 3.97044 3.4744C-2.90181 9.56918 3.25458 18.3486 7.1918 21.9764L21.0622 36.035V36.125L21.1066 36.08L21.1511 36.125V36.035L35.0215 21.9764C38.9587 18.3486 45.1151 9.56918 38.2428 3.4744C31.4058 -2.58913 24.002 1.61685 21.1066 4.51801Z" fill="url(#paint0_linear)"/>
<defs>
<linearGradient id="paint0_linear" x1="39.0625" y1="4.4375" x2="20.375" y2="26.375" gradientUnits="userSpaceOnUse">
<stop stop-color="#13E49B"/>
<stop offset="1" stop-color="#13E49B" stop-opacity="0"/>
</linearGradient>
</defs>
</svg>
