<svg width="24" height="24" viewBox="0 0 24 24" fill="none" xmlns="http://www.w3.org/2000/svg">
<path d="M12 1.59998C7.13995 1.59998 3.19995 5.53998 3.19995 10.4C3.19995 16.1872 8.92155 18.9576 9.63835 19.6024C10.3704 20.2608 10.9752 21.7368 11.2192 22.5736C11.3376 22.98 11.6704 23.1856 12 23.1944C12.3304 23.1848 12.6624 22.9792 12.7808 22.5736C13.0248 21.7368 13.6295 20.2616 14.3616 19.6024C15.0784 18.9576 20.7999 16.1872 20.7999 10.4C20.7999 5.53998 16.86 1.59998 12 1.59998ZM8.60555 13.7944C8.91835 14.1072 8.91835 14.6136 8.60555 14.9256C8.44955 15.0816 8.24475 15.16 8.03995 15.16C7.83515 15.16 7.63035 15.0816 7.47435 14.9256C6.26555 13.7168 5.59995 12.1096 5.59995 10.4C5.59995 8.69038 6.26555 7.08318 7.47435 5.87438C7.78715 5.56158 8.29275 5.56158 8.60555 5.87438C8.91835 6.18638 8.91835 6.69278 8.60555 7.00558C7.69915 7.91278 7.19995 9.11758 7.19995 10.4C7.19995 11.6824 7.69915 12.8872 8.60555 13.7944ZM12 12C11.116 12 10.4 11.284 10.4 10.4C10.4 9.51598 11.116 8.79998 12 8.79998C12.884 8.79998 13.6 9.51598 13.6 10.4C13.6 11.284 12.884 12 12 12ZM16.5255 14.9256C16.3695 15.0816 16.1648 15.16 15.96 15.16C15.7552 15.16 15.5504 15.0816 15.3944 14.9256C15.0816 14.6136 15.0816 14.1072 15.3944 13.7944C16.3008 12.8872 16.8 11.6824 16.8 10.4C16.8 9.11758 16.3008 7.91278 15.3944 7.00558C15.0816 6.69278 15.0816 6.18638 15.3944 5.87438C15.7072 5.56158 16.2128 5.56158 16.5255 5.87438C17.7344 7.08318 18.4 8.69038 18.4 10.4C18.4 12.1096 17.7344 13.7168 16.5255 14.9256Z" fill="white"/>
</svg>
