<svg width="30" height="33" viewBox="0 0 30 33" fill="none" xmlns="http://www.w3.org/2000/svg">
<path d="M14.3388 0.333374L2.15795 7.96355L14.3388 15.5937V10.1856C14.5304 10.1727 14.7239 10.1662 14.9189 10.1662C19.4037 10.1662 23.0395 13.6177 23.0395 17.8754C23.0395 22.1331 19.4037 25.5847 14.9189 25.5847C11.4494 25.5847 8.44722 23.4333 7.29776 20.495C6.68444 18.927 5.53866 17.416 3.81099 17.088C1.72377 16.6917 -0.309634 18.1084 0.0392975 20.1019C1.21142 26.7985 7.42974 32.1926 14.9189 32.1926C23.2479 32.1926 30 25.7826 30 17.8754C30 9.96828 23.2479 3.55826 14.9189 3.55826C14.7246 3.55826 14.5313 3.56175 14.3388 3.56866V0.333374Z" fill="#DFE3EA"/>
</svg>
