<svg width="42" height="40" viewBox="0 0 42 40" fill="none" xmlns="http://www.w3.org/2000/svg">
<path d="M20.5515 1.24187C20.735 0.870244 21.2649 0.870244 21.4483 1.24187L27.2513 13C27.3241 13.1475 27.4649 13.2498 27.6277 13.2735L40.6036 15.159C41.0137 15.2186 41.1774 15.7226 40.8807 16.0118L31.4913 25.1642C31.3734 25.2791 31.3196 25.4446 31.3475 25.6068L33.564 38.5302C33.6341 38.9387 33.2053 39.2501 32.8385 39.0573L21.2326 32.9557C21.0869 32.8791 20.9129 32.8791 20.7672 32.9557L9.16131 39.0573C8.79449 39.2501 8.36578 38.9387 8.43583 38.5302L10.6524 25.6068C10.6802 25.4446 10.6264 25.2791 10.5086 25.1642L1.11917 16.0118C0.82241 15.7226 0.986165 15.2186 1.39628 15.159L14.3721 13.2735C14.535 13.2498 14.6757 13.1475 14.7486 13L20.5515 1.24187Z" fill="#22B7F9"/>
<path d="M20.5515 1.24187C20.735 0.870244 21.2649 0.870244 21.4483 1.24187L27.2513 13C27.3241 13.1475 27.4649 13.2498 27.6277 13.2735L40.6036 15.159C41.0137 15.2186 41.1774 15.7226 40.8807 16.0118L31.4913 25.1642C31.3734 25.2791 31.3196 25.4446 31.3475 25.6068L33.564 38.5302C33.6341 38.9387 33.2053 39.2501 32.8385 39.0573L21.2326 32.9557C21.0869 32.8791 20.9129 32.8791 20.7672 32.9557L9.16131 39.0573C8.79449 39.2501 8.36578 38.9387 8.43583 38.5302L10.6524 25.6068C10.6802 25.4446 10.6264 25.2791 10.5086 25.1642L1.11917 16.0118C0.82241 15.7226 0.986165 15.2186 1.39628 15.159L14.3721 13.2735C14.535 13.2498 14.6757 13.1475 14.7486 13L20.5515 1.24187Z" fill="url(#paint0_linear)"/>
<defs>
<linearGradient id="paint0_linear" x1="28.2187" y1="14.3858" x2="21.1925" y2="31.5609" gradientUnits="userSpaceOnUse">
<stop stop-color="#35ABF5"/>
<stop offset="1" stop-color="#1EA7FD" stop-opacity="0"/>
</linearGradient>
</defs>
</svg>
