<svg width="42" height="40" viewBox="0 0 42 40" fill="none" xmlns="http://www.w3.org/2000/svg">
<path d="M20.5516 1.24187C20.735 0.870244 21.265 0.870244 21.4484 1.24187L27.2513 13C27.3242 13.1475 27.465 13.2498 27.6278 13.2735L40.6037 15.159C41.0138 15.2186 41.1775 15.7226 40.8808 16.0118L31.4914 25.1642C31.3735 25.2791 31.3197 25.4446 31.3476 25.6068L33.5641 38.5302C33.6341 38.9387 33.2054 39.2501 32.8386 39.0573L21.2327 32.9557C21.087 32.8791 20.913 32.8791 20.7673 32.9557L9.1614 39.0573C8.79458 39.2501 8.36587 38.9387 8.43592 38.5302L10.6525 25.6068C10.6803 25.4446 10.6265 25.2791 10.5087 25.1642L1.11926 16.0118C0.822502 15.7226 0.986257 15.2186 1.39637 15.159L14.3722 13.2735C14.5351 13.2498 14.6758 13.1475 14.7487 13L20.5516 1.24187Z" fill="#DFE3EA"/>
</svg>
