<svg width="24" height="24" viewBox="0 0 24 24" fill="none" xmlns="http://www.w3.org/2000/svg">
<path d="M11.9999 2.40002C6.70744 2.40002 2.3999 6.70757 2.3999 12C2.3999 17.2925 6.70744 21.6 11.9999 21.6C17.2924 21.6 21.5999 17.2925 21.5999 12C21.5999 6.70757 17.2924 2.40002 11.9999 2.40002ZM11.9999 4.00002C13.5154 4.00002 14.925 4.42666 16.1312 5.15471L15.9999 5.60002L16.7999 6.40002L15.9999 7.20002L15.1999 6.40002H13.5999L11.9999 8.00002L12.7999 9.60002L13.5999 8.80002V8.00002H14.3999L15.1999 8.80002L14.3999 9.60002L12.7999 10.4L11.1999 11.2H10.3999V12.8H11.1999L12.7999 12L13.5999 12.8H14.3999V12L15.1999 11.2L16.7999 10.4V12H15.1999V12.8H16.7999L18.3999 15.2L19.1999 14.4V13.6H18.3999V12.8H19.1999L19.9687 12.6328C19.8471 14.1894 19.2818 15.6151 18.3999 16.7922V16H17.5999L15.9999 13.6L14.3999 14.4L11.9999 13.6L9.5999 14.4L8.7999 16L9.5999 17.6H11.1999L11.9999 16.8L12.7999 17.6V19.961C12.5365 19.987 12.2703 20 11.9999 20C7.57215 20 3.9999 16.4278 3.9999 12C3.9999 11.269 4.10644 10.5644 4.28896 9.89221L4.7999 9.60002H5.5999V7.20784C5.60172 7.20542 5.60277 7.20244 5.60459 7.20002H6.3999L6.82646 5.8969C7.15626 5.61722 7.51153 5.36918 7.88428 5.14534L7.1999 7.20002H8.7999L10.3999 5.60002V4.80002H9.5999L8.7999 5.60002V4.66721C9.77982 4.24028 10.8603 4.00002 11.9999 4.00002ZM10.3999 8.00002V9.60002H11.1999V8.00002H10.3999Z" fill="white"/>
</svg>
